<?xml version="1.0" standalone="no"?><!DOCTYPE svg PUBLIC "-//W3C//DTD SVG 1.1//EN" "http://www.w3.org/Graphics/SVG/1.1/DTD/svg11.dtd"><svg t="1541855014028" class="icon" style="" viewBox="0 0 1024 1024" version="1.1" xmlns="http://www.w3.org/2000/svg" p-id="6535" xmlns:xlink="http://www.w3.org/1999/xlink" width="200" height="200"><defs><style type="text/css"></style></defs><path d="M386.119523 732.0006c7.482415-12.238742 9.521864-25.157983 6.121418-38.759769-3.40147-13.598716-11.901051-23.12058-25.50079-28.559453-12.919241-5.439896-26.859741-5.439896-41.819454 0-14.959713 5.438872-26.180266 13.9405-33.660634 25.50079-8.840342 12.920264-11.56029 25.839505-8.160867 38.758746 3.400446 12.921287 11.56029 22.781866 24.480554 29.581736 12.919241 6.79987 27.200502 7.139607 42.839691 1.019213C366.060675 753.422492 377.961726 744.242412 386.119523 732.0006L386.119523 732.0006zM439.161576 663.661142c3.399423-4.758374 4.078899-9.859555 2.039449-15.300474-2.039449-5.438872-5.438872-8.838296-10.200316-10.19827-4.759397-2.039449-10.199293-2.039449-16.319687 0-6.118348 2.039449-10.199293 5.438872-12.239765 10.19827-6.118348 12.240789-3.399423 21.082154 8.16189 26.52205 5.437849 1.359974 10.879792 1.01819 16.319687-1.02126C432.361707 671.822009 436.441629 668.421562 439.161576 663.661142L439.161576 663.661142zM538.101983 724.863039c-16.999163 38.757722-46.921659 66.977437-89.760326 84.658122-42.839691 17.680684-85.340667 20.060895-127.501906 7.141654-40.800241-12.922311-68.681242-37.063127-83.640955-72.421426-14.959713-35.359322-13.9405-70.719668 3.060709-106.080014 18.359137-35.362392 47.260373-61.882396 86.699618-79.562057 39.441291-17.679661 79.221296-21.080108 119.342062-10.200316 42.158169 10.880815 72.41938 33.32192 90.779539 67.320245C555.441906 649.721665 555.782667 686.102247 538.101983 724.863039zM715.58421 633.06224c-3.399423-36.041868-20.060895-68.000743-49.983391-95.880721-29.918403-27.879977-69.698408-48.621371-119.338992-62.22111-49.63956-13.600763-101.660354-17.679661-156.061358-12.240789-84.319407 8.842389-154.360623 35.701107-210.120578 80.58127-55.760978 44.881187-80.921008 95.200222-75.480088 150.960177 3.399423 36.040844 20.399609 68.00279 51.000558 95.881744 30.598902 27.877931 70.040193 48.619324 118.320802 62.220087 48.279586 13.599739 100.30038 17.677615 156.060335 12.239765 84.999906-8.838296 155.040099-35.69906 210.120578-80.580247C695.184601 739.142254 720.342584 688.821171 715.58421 633.06224L715.58421 633.06224zM891.024941 636.122949c0 25.838482-6.800893 52.018747-20.402679 78.538751-13.600763 26.521027-34.339086 52.700269-62.220087 78.540797-27.878954 25.840528-59.8409 47.941895-95.880721 66.302055-36.039821 18.358113-78.880535 34.341133-128.521119 47.940872-49.641607 13.598716-100.979856 19.379373-154.020886 17.3389s-105.400538-8.500605-157.081595-19.379373c-51.680033-10.881838-97.240695-28.220738-136.681986-52.021817-39.440267-23.799032-72.079642-52.700269-97.92017-86.701664C12.455171 732.682122 0.215406 694.943612 1.576403 653.461849c0-43.522236 13.260002-90.101087 39.781028-139.740648 26.520003-49.64263 63.919798-98.601692 112.200408-146.882302 63.920822-63.920822 128.860856-108.461247 194.822151-133.6223 65.960271-25.159006 112.542192-24.139793 139.742694 3.059686 24.478508 24.480554 28.217668 64.261583 11.220552 119.342062-1.359974 5.440919-1.359974 9.18008 0 11.220552 1.359974 2.039449 3.058662 3.399423 5.099135 4.079922 2.037403 0.678452 4.758374 0.678452 8.15882 0 3.399423-0.680499 6.119371-1.360997 8.160867-2.040473l3.059686-1.020236c53.04103-22.440082 99.961666-33.660634 140.761907-33.660634s69.699432 11.56029 86.701664 34.68087c17.000186 23.800056 17.000186 57.46069 0 100.980879-0.681522 5.438872-1.699712 9.18008-3.060709 11.219529-1.357927 2.040473-0.338714 4.420683 3.060709 7.141654 3.3984 2.719948 5.779633 4.418636 7.140631 5.098111 1.360997 0.680499 4.419659 1.701758 9.181103 3.061732 21.76163 6.800893 41.479717 15.639189 59.160401 26.520003 17.681708 10.880815 32.639375 26.520003 44.881187 46.920636C883.883287 590.222549 890.345466 612.32187 891.024941 636.122949L891.024941 636.122949zM849.205487 280.138258c15.639189 18.36016 25.838482 39.10053 30.598902 62.22111 4.758374 23.118534 3.741207 45.559639-3.059686 67.321268-3.40147 8.15882-9.18008 14.619976-17.339924 19.379373-8.160867 4.76042-16.658402 5.439896-25.499767 2.040473-8.162914-3.400446-14.623046-9.18008-19.380396-17.340947-4.758374-8.157797-5.438872-16.660448-2.040473-25.498744 7.482415-23.801079 3.059686-44.541449-13.258978-62.222133-16.319687-17.678638-36.72032-24.479531-61.200874-20.400632-8.841366 2.039449-17.337877 0.679475-25.499767-4.079922-8.16189-4.76042-12.921287-11.901051-14.281261-21.420869-2.040473-9.519818-0.338714-18.019399 5.099135-25.50079 5.439896-7.480368 12.241812-12.239765 20.401656-14.280238 23.121604-4.759397 45.899376-3.739161 68.338435 3.060709C814.523593 250.218832 833.562205 262.457574 849.205487 280.138258zM952.225815 187.318246c32.639375 36.72032 54.057173 79.221296 64.260559 127.500882 10.201339 48.28061 7.481392 93.840248-8.162914 136.681986-3.397377 10.199293-9.859555 18.018376-19.377326 23.459295-9.521864 5.438872-19.380396 6.119371-29.581736 2.039449-10.199293-4.078899-17.679661-10.539031-22.441105-19.379373-4.758374-8.841366-5.779633-18.699897-3.059686-29.580712 10.880815-31.279401 12.919241-63.919798 6.119371-97.919147-6.800893-34.001395-22.101367-63.921845-45.899376-89.76135-23.802102-26.520003-52.020794-44.539402-84.661192-54.060243-32.639375-9.519818-65.281819-11.220552-97.922217-5.100158-10.878768 2.040473-20.738323 0-29.577642-6.120394s-14.618952-14.280238-17.3389-24.480554c-2.721994-10.199293-1.019213-20.060895 5.100158-29.579689 6.118348-9.520841 14.616906-14.959713 25.50079-16.321734 46.239114-9.518794 92.478228-7.479345 138.721435 6.120394C880.144126 124.417661 919.585417 149.917428 952.225815 187.318246L952.225815 187.318246z" p-id="6536"></path></svg>