<?xml version="1.0" standalone="no"?><!DOCTYPE svg PUBLIC "-//W3C//DTD SVG 1.1//EN" "http://www.w3.org/Graphics/SVG/1.1/DTD/svg11.dtd"><svg t="1541866011476" class="icon" style="" viewBox="0 0 1024 1024" version="1.1" xmlns="http://www.w3.org/2000/svg" p-id="30923" xmlns:xlink="http://www.w3.org/1999/xlink" width="200" height="200"><defs><style type="text/css"></style></defs><path d="M977.068 8.534C972.8 4.266 968.534 0 960.002 0H64c-4.266 0-12.798 4.266-17.066 8.534-4.268 4.268-4.266 8.534-4.266 17.066l85.334 853.334c0 8.534 8.534 17.066 12.798 17.066l384 128h17.068L883.2 896c8.534-4.266 12.798-8.534 12.798-17.066L981.332 25.6c0.004-4.264 0.004-12.8-4.264-17.066zM512.002 772.268c0 4.266-4.268 12.8-8.534 17.066s-8.786 4.832-13.05 4.832l-4.014-0.566-149.334-42.666c-8.534-4.266-12.798-8.534-17.066-17.066L298.67 627.2c-4.266-12.798 4.266-21.334 17.066-25.6 12.798-4.266 21.334 4.266 25.602 17.066l17.066 93.866 110.934 29.868V260.268H234.668c-12.798 0-21.334-8.534-21.334-21.334 0-12.798 8.534-21.334 21.334-21.334h256c12.798 0 21.334 8.534 21.334 21.334v533.334zM810.668 243.2l-21.334 85.334c-4.266 12.798-12.964 19.118-25.6 17.066-13.316-2.16-18.416-12.87-17.066-25.602 1.608-15.188 12.798-59.732 12.798-59.732h-166.4V473.6H742.4c4.266 0 12.798 4.266 17.066 8.534 4.266 4.266 4.266 12.798 4.266 17.066l-42.666 234.666c0 8.534-8.534 12.798-12.798 17.066l-128 42.666c-4.266 0-19.768 5.9-29.868-12.798-4.266-12.798 4.266-21.334 12.798-25.602l115.2-38.4 34.134-196.268h-145.068c-12.798 0-21.334-8.534-21.334-21.334v-256c0-12.798 8.534-21.334 21.334-21.334h213.334c8.534 0 14.374 1.824 19.95 4.134 11.83 4.902 9.92 12.938 9.92 17.204z" fill="#13227a" p-id="30924"></path></svg>