<?xml version="1.0" standalone="no"?><!DOCTYPE svg PUBLIC "-//W3C//DTD SVG 1.1//EN" "http://www.w3.org/Graphics/SVG/1.1/DTD/svg11.dtd"><svg t="1541865863533" class="icon" style="" viewBox="0 0 1024 1024" version="1.1" xmlns="http://www.w3.org/2000/svg" p-id="26597" xmlns:xlink="http://www.w3.org/1999/xlink" width="200" height="200"><defs><style type="text/css"></style></defs><path d="M512.319544 1024a76.690572 76.690572 0 0 1-38.66483-10.544954l-123.471821-74.134219c-18.405737-10.417136-9.394595-14.187756-3.323258-16.296747a242.086573 242.086573 0 0 0 55.792391-25.563524 9.458504 9.458504 0 0 1 9.266777 0.702997l94.776766 57.134476a12.014856 12.014856 0 0 0 11.503586 0l369.648557-216.523049a11.887039 11.887039 0 0 0 5.623976-10.1615v-433.301733a12.206583 12.206583 0 0 0-5.687885-10.353227L518.390881 68.627198a11.439677 11.439677 0 0 0-11.375768 0L137.366555 285.086337a12.014856 12.014856 0 0 0-5.815702 10.289319v433.110006a11.503586 11.503586 0 0 0 5.815702 10.033683l101.295464 59.371285c54.961577 27.864241 88.577611-4.984887 88.577611-37.961833V332.314948a10.73668 10.73668 0 0 1 10.73668-10.800589h46.845158a10.73668 10.73668 0 0 1 10.672771 10.800589v427.54994a103.340546 103.340546 0 0 1-109.411883 117.144849 156.257041 156.257041 0 0 1-85.190444-23.518442l-96.949665-56.623206a79.50256 79.50256 0 0 1-38.792647-68.446336V295.311747a79.310833 79.310833 0 0 1 38.792647-68.382427L473.654714 10.150636a79.886013 79.886013 0 0 1 77.713113 0L921.016385 226.92932a79.438651 79.438651 0 0 1 38.856556 68.382427v433.046097a79.694286 79.694286 0 0 1-38.856556 68.446336l-369.648558 216.650866a76.690572 76.690572 0 0 1-38.920465 10.544954z m114.205044-298.390234c-161.817107 0-195.688777-75.412396-195.688777-138.61821A10.672771 10.672771 0 0 1 441.700309 575.999241h47.612063a10.73668 10.73668 0 0 1 10.608863 9.202869c7.221696 49.40151 28.695056 74.325946 126.539444 74.325946 77.840931 0 111.009603-17.894467 111.009603-59.818646 0-24.221439-9.330686-42.115906-130.437881-54.194671-101.103738-10.161501-163.734372-32.849128-163.734372-115.035859 0-75.73194 62.886269-120.85156 168.271897-120.851559 118.423025 0 177.027404 41.732453 184.440826 131.268695a11.056224 11.056224 0 0 1-2.811987 8.308146 10.672771 10.672771 0 0 1-7.860784 3.514984h-47.931608a10.672771 10.672771 0 0 1-10.353227-8.499871c-11.503586-51.957863-39.559553-68.574153-115.419311-68.574154-85.062626 0-94.904583 30.037141-94.904583 52.596951 0 27.352971 11.695312 35.277663 126.475535 50.679687 113.629864 15.210297 167.632809 36.811475 167.632809 117.847845s-67.104251 128.584526-184.249099 128.584526z" fill="#73B923" p-id="26598"></path></svg>