<?xml version="1.0" standalone="no"?><!DOCTYPE svg PUBLIC "-//W3C//DTD SVG 1.1//EN" "http://www.w3.org/Graphics/SVG/1.1/DTD/svg11.dtd"><svg class="icon" width="200px" height="200.00px" viewBox="0 0 1024 1024" version="1.1" xmlns="http://www.w3.org/2000/svg"><path d="M838.42048 354.6112c0-180.849664-146.847744-327.704576-327.354368-327.752704l0-0.001024c-0.01024 0-0.021504 0-0.031744 0-0.009216 0-0.018432 0-0.028672 0-0.009216 0-0.018432 0-0.028672 0-0.01024 0-0.021504 0-0.031744 0l0 0.001024C330.437632 26.906624 183.589888 173.761536 183.589888 354.6112c14.953472 336.166912 320.779264 631.862272 327.354368 638.1824l0 0.115712c0 0 0.02048-0.02048 0.060416-0.057344 0.038912 0.037888 0.060416 0.057344 0.060416 0.057344l0-0.115712C517.641216 986.473472 823.465984 690.778112 838.42048 354.6112zM370.556928 350.181376c0-77.724672 62.815232-140.786688 140.448768-141.19424 77.633536 0.407552 140.448768 63.468544 140.448768 141.19424 0 77.737984-62.815232 140.786688-140.448768 141.19424C433.37216 490.968064 370.556928 427.91936 370.556928 350.181376z" /></svg>