<?xml version="1.0" standalone="no"?><!DOCTYPE svg PUBLIC "-//W3C//DTD SVG 1.1//EN" "http://www.w3.org/Graphics/SVG/1.1/DTD/svg11.dtd"><svg class="icon" width="200px" height="200.00px" viewBox="0 0 1024 1024" version="1.1" xmlns="http://www.w3.org/2000/svg"><path d="M512 315.733333c-24.029867 0-44.032-8.328533-60.0064-24.9856a92.637867 92.637867 0 0 1-25.941333-61.0304c0-15.9744 4.642133-30.651733 13.9264-43.963733L512 59.733333l72.021333 126.020267a75.093333 75.093333 0 0 1 13.994667 43.963733c-1.365333 24.029867-10.0352 44.373333-26.0096 61.0304a79.735467 79.735467 0 0 1-60.0064 24.9856z m195.9936 425.984c29.354667 27.989333 64.034133 42.666667 104.0384 44.032 31.9488-1.365333 59.938133-10.0352 83.968-26.0096V955.733333a40.686933 40.686933 0 0 1-12.014933 30.037334 40.686933 40.686933 0 0 1-30.037334 11.946666H169.984a40.686933 40.686933 0 0 1-30.037333-12.014933 40.686933 40.686933 0 0 1-11.946667-29.969067v-195.9936c24.029867 15.9744 52.0192 24.644267 83.968 25.941334a153.3952 153.3952 0 0 0 104.0384-43.963734l46.011733-46.011733 46.011734 46.011733c29.354667 27.989333 63.965867 41.984 103.970133 41.984 40.004267 0 74.683733-13.994667 103.970133-41.984l46.011734-46.011733 46.011733 46.011733zM768 443.733333c35.976533 1.365333 66.013867 13.994667 89.975467 38.024534 24.029867 23.9616 36.6592 53.930667 38.024533 89.975466v66.013867c0 23.9616-7.9872 43.690667-24.029867 58.9824a86.971733 86.971733 0 0 1-59.938133 24.029867c-24.029867 0.682667-43.349333-7.031467-58.026667-23.005867L661.981867 605.730133 570.026667 697.7536a82.807467 82.807467 0 0 1-58.026667 21.981867 90.112 90.112 0 0 1-60.0064-21.981867L362.018133 605.730133l-92.023466 92.023467c-14.677333 15.9744-33.9968 23.620267-58.026667 23.005867a86.971733 86.971733 0 0 1-59.938133-24.029867c-16.042667-15.36-24.029867-35.0208-24.029867-58.9824v-66.013867c1.365333-35.976533 13.994667-66.013867 38.024533-89.975466 23.9616-24.029867 53.930667-36.6592 89.975467-38.024534h214.016V357.717333h83.968V443.733333h214.016z" /></svg>