<?xml version="1.0" standalone="no"?><!DOCTYPE svg PUBLIC "-//W3C//DTD SVG 1.1//EN" "http://www.w3.org/Graphics/SVG/1.1/DTD/svg11.dtd"><svg class="icon" width="200px" height="200.00px" viewBox="0 0 1024 1024" version="1.1" xmlns="http://www.w3.org/2000/svg"><path d="M960.992 740.768c0 19.712-5.536 37.952-14.432 54.048l-283.84-317.568 280.768-245.632c10.912 17.344 17.504 37.696 17.504 59.68L960.992 740.768 960.992 740.768zM511.488 534.88 902.176 193.056c-16.032-8.768-34.08-14.144-53.568-14.144L174.368 178.912c-19.52 0-37.568 5.376-53.536 14.144L511.488 534.88 511.488 534.88zM620.416 514.208l-90.432 79.168c-5.28 4.608-11.872 6.912-18.496 6.912-6.624 0-13.216-2.304-18.496-6.912l-90.464-79.168L115.104 835.84c17.216 10.816 37.408 17.28 59.264 17.28l674.24 0c21.824 0 42.048-6.464 59.264-17.28L620.416 514.208 620.416 514.208zM79.488 231.584C68.576 248.896 62.016 269.28 62.016 291.264l0 449.472c0 19.712 5.504 37.952 14.432 54.048l283.808-317.632L79.488 231.584 79.488 231.584zM79.488 231.584" /></svg>