<?xml version="1.0" standalone="no"?><!DOCTYPE svg PUBLIC "-//W3C//DTD SVG 1.1//EN" "http://www.w3.org/Graphics/SVG/1.1/DTD/svg11.dtd"><svg class="icon" width="200px" height="200.00px" viewBox="0 0 1024 1024" version="1.1" xmlns="http://www.w3.org/2000/svg"><path d="M795.641496 768.903317m-27.460833 0a27.460833 27.460833 0 1 0 54.921666 0 27.460833 27.460833 0 1 0-54.921666 0ZM854.899083 683.630205m-27.460833 0a27.460833 27.460833 0 1 0 54.921665 0 27.460833 27.460833 0 1 0-54.921665 0ZM889.58645 583.181369m-27.460832 0a27.460833 27.460833 0 1 0 54.921665 0 27.460833 27.460833 0 1 0-54.921665 0ZM495.740296 924.273818c-236.307692 0-428.533522-192.225829-428.533521-428.533522s192.225829-428.533522 428.533521-428.533521c233.417078 0 425.642908 190.057869 428.533522 423.474947 0 13.730416-10.839802 25.292872-25.292872 25.292872-13.730416 0-25.292872-10.839802-25.292873-25.292872-2.890614-205.956246-171.991531-373.611856-377.947777-373.611856-208.84686 0-377.947777 169.823571-377.947777 377.947777 0 208.84686 169.823571 377.947777 377.947777 377.947777 72.265349 0 142.362738-20.234298 202.342979-58.534933 11.562456-7.226535 27.460833-4.335921 34.687367 7.949188 7.226535 11.562456 4.335921 27.460833-7.949188 34.687368-67.929428 44.081863-147.421313 67.206775-229.081158 67.206775zM698.083275 697.360621c-5.781228 0-11.562456-2.16796-16.621031-6.503881l-202.342978-176.327453c-5.781228-5.058574-8.671842-11.562456-8.671842-18.788991v-257.987297c0-13.730416 11.562456-25.292872 25.292872-25.292872s25.292872 11.562456 25.292873 25.292872V484.177841l193.671136 169.100917c10.839802 9.394495 11.562456 25.292872 2.16796 35.410021-5.058574 5.781228-11.562456 8.671842-18.78899 8.671842z" /></svg>